<svg xmlns="http://www.w3.org/2000/svg" xmlns:xlink="http://www.w3.org/1999/xlink" width="120" height="121" viewBox="0 0 120 121">
  <defs>
    <clipPath id="clip-path">
      <rect width="120" height="121" fill="none"/>
    </clipPath>
  </defs>
  <g id="DotsDesign" clip-path="url(#clip-path)">
    <g transform="translate(-135 -1283)">
      <g id="DotDesign" transform="translate(134 1282)" fill="#fff" stroke="#707070" stroke-width="1">
        <circle cx="5" cy="5" r="5" stroke="none"/>
        <circle cx="5" cy="5" r="4.5" fill="none"/>
      </g>
    </g>
    <g transform="translate(-107 -1283)">
      <g id="DotDesign-2" data-name="DotDesign" transform="translate(134 1282)" fill="#fff" stroke="#707070" stroke-width="1">
        <circle cx="5" cy="5" r="5" stroke="none"/>
        <circle cx="5" cy="5" r="4.5" fill="none"/>
      </g>
    </g>
    <g transform="translate(-79 -1283)">
      <g id="DotDesign-3" data-name="DotDesign" transform="translate(134 1282)" fill="#fff" stroke="#707070" stroke-width="1">
        <circle cx="5" cy="5" r="5" stroke="none"/>
        <circle cx="5" cy="5" r="4.5" fill="none"/>
      </g>
    </g>
    <g transform="translate(-51 -1283)">
      <g id="DotDesign-4" data-name="DotDesign" transform="translate(134 1282)" fill="#fff" stroke="#707070" stroke-width="1">
        <circle cx="5" cy="5" r="5" stroke="none"/>
        <circle cx="5" cy="5" r="4.5" fill="none"/>
      </g>
    </g>
    <g transform="translate(-23 -1283)">
      <g id="DotDesign-5" data-name="DotDesign" transform="translate(134 1282)" fill="#fff" stroke="#707070" stroke-width="1">
        <circle cx="5" cy="5" r="5" stroke="none"/>
        <circle cx="5" cy="5" r="4.5" fill="none"/>
      </g>
    </g>
    <g transform="translate(-135 -1255)">
      <g id="DotDesign-6" data-name="DotDesign" transform="translate(134 1282)" fill="#fff" stroke="#707070" stroke-width="1">
        <circle cx="5" cy="5" r="5" stroke="none"/>
        <circle cx="5" cy="5" r="4.5" fill="none"/>
      </g>
    </g>
    <g transform="translate(-107 -1255)">
      <g id="DotDesign-7" data-name="DotDesign" transform="translate(134 1282)" fill="#fff" stroke="#707070" stroke-width="1">
        <circle cx="5" cy="5" r="5" stroke="none"/>
        <circle cx="5" cy="5" r="4.5" fill="none"/>
      </g>
    </g>
    <g transform="translate(-79 -1255)">
      <g id="DotDesign-8" data-name="DotDesign" transform="translate(134 1282)" fill="#fff" stroke="#707070" stroke-width="1">
        <circle cx="5" cy="5" r="5" stroke="none"/>
        <circle cx="5" cy="5" r="4.5" fill="none"/>
      </g>
    </g>
    <g transform="translate(-51 -1255)">
      <g id="DotDesign-9" data-name="DotDesign" transform="translate(134 1282)" fill="#fff" stroke="#707070" stroke-width="1">
        <circle cx="5" cy="5" r="5" stroke="none"/>
        <circle cx="5" cy="5" r="4.5" fill="none"/>
      </g>
    </g>
    <g transform="translate(-23 -1255)">
      <g id="DotDesign-10" data-name="DotDesign" transform="translate(134 1282)" fill="#fff" stroke="#707070" stroke-width="1">
        <circle cx="5" cy="5" r="5" stroke="none"/>
        <circle cx="5" cy="5" r="4.5" fill="none"/>
      </g>
    </g>
    <g transform="translate(-135 -1227)">
      <g id="DotDesign-11" data-name="DotDesign" transform="translate(134 1282)" fill="#fff" stroke="#707070" stroke-width="1">
        <circle cx="5" cy="5" r="5" stroke="none"/>
        <circle cx="5" cy="5" r="4.5" fill="none"/>
      </g>
    </g>
    <g transform="translate(-107 -1227)">
      <g id="DotDesign-12" data-name="DotDesign" transform="translate(134 1282)" fill="#fff" stroke="#707070" stroke-width="1">
        <circle cx="5" cy="5" r="5" stroke="none"/>
        <circle cx="5" cy="5" r="4.5" fill="none"/>
      </g>
    </g>
    <g transform="translate(-79 -1227)">
      <g id="DotDesign-13" data-name="DotDesign" transform="translate(134 1282)" fill="#fff" stroke="#707070" stroke-width="1">
        <circle cx="5" cy="5" r="5" stroke="none"/>
        <circle cx="5" cy="5" r="4.5" fill="none"/>
      </g>
    </g>
    <g transform="translate(-51 -1227)">
      <g id="DotDesign-14" data-name="DotDesign" transform="translate(134 1282)" fill="#fff" stroke="#707070" stroke-width="1">
        <circle cx="5" cy="5" r="5" stroke="none"/>
        <circle cx="5" cy="5" r="4.5" fill="none"/>
      </g>
    </g>
    <g transform="translate(-23 -1227)">
      <g id="DotDesign-15" data-name="DotDesign" transform="translate(134 1282)" fill="#fff" stroke="#707070" stroke-width="1">
        <circle cx="5" cy="5" r="5" stroke="none"/>
        <circle cx="5" cy="5" r="4.5" fill="none"/>
      </g>
    </g>
    <g transform="translate(-135 -1199)">
      <g id="DotDesign-16" data-name="DotDesign" transform="translate(134 1282)" fill="#fff" stroke="#707070" stroke-width="1">
        <circle cx="5" cy="5" r="5" stroke="none"/>
        <circle cx="5" cy="5" r="4.5" fill="none"/>
      </g>
    </g>
    <g transform="translate(-107 -1199)">
      <g id="DotDesign-17" data-name="DotDesign" transform="translate(134 1282)" fill="#fff" stroke="#707070" stroke-width="1">
        <circle cx="5" cy="5" r="5" stroke="none"/>
        <circle cx="5" cy="5" r="4.5" fill="none"/>
      </g>
    </g>
    <g transform="translate(-79 -1199)">
      <g id="DotDesign-18" data-name="DotDesign" transform="translate(134 1282)" fill="#fff" stroke="#707070" stroke-width="1">
        <circle cx="5" cy="5" r="5" stroke="none"/>
        <circle cx="5" cy="5" r="4.5" fill="none"/>
      </g>
    </g>
    <g transform="translate(-51 -1199)">
      <g id="DotDesign-19" data-name="DotDesign" transform="translate(134 1282)" fill="#fff" stroke="#707070" stroke-width="1">
        <circle cx="5" cy="5" r="5" stroke="none"/>
        <circle cx="5" cy="5" r="4.5" fill="none"/>
      </g>
    </g>
    <g transform="translate(-23 -1199)">
      <g id="DotDesign-20" data-name="DotDesign" transform="translate(134 1282)" fill="#fff" stroke="#707070" stroke-width="1">
        <circle cx="5" cy="5" r="5" stroke="none"/>
        <circle cx="5" cy="5" r="4.5" fill="none"/>
      </g>
    </g>
    <g transform="translate(-135 -1171)">
      <g id="DotDesign-21" data-name="DotDesign" transform="translate(134 1282)" fill="#fff" stroke="#707070" stroke-width="1">
        <circle cx="5" cy="5" r="5" stroke="none"/>
        <circle cx="5" cy="5" r="4.5" fill="none"/>
      </g>
    </g>
    <g transform="translate(-107 -1171)">
      <g id="DotDesign-22" data-name="DotDesign" transform="translate(134 1282)" fill="#fff" stroke="#707070" stroke-width="1">
        <circle cx="5" cy="5" r="5" stroke="none"/>
        <circle cx="5" cy="5" r="4.5" fill="none"/>
      </g>
    </g>
    <g transform="translate(-79 -1171)">
      <g id="DotDesign-23" data-name="DotDesign" transform="translate(134 1282)" fill="#fff" stroke="#707070" stroke-width="1">
        <circle cx="5" cy="5" r="5" stroke="none"/>
        <circle cx="5" cy="5" r="4.5" fill="none"/>
      </g>
    </g>
    <g transform="translate(-51 -1171)">
      <g id="DotDesign-24" data-name="DotDesign" transform="translate(134 1282)" fill="#fff" stroke="#707070" stroke-width="1">
        <circle cx="5" cy="5" r="5" stroke="none"/>
        <circle cx="5" cy="5" r="4.5" fill="none"/>
      </g>
    </g>
    <g transform="translate(-23 -1171)">
      <g id="DotDesign-25" data-name="DotDesign" transform="translate(134 1282)" fill="#fff" stroke="#707070" stroke-width="1">
        <circle cx="5" cy="5" r="5" stroke="none"/>
        <circle cx="5" cy="5" r="4.5" fill="none"/>
      </g>
    </g>
  </g>
</svg>
