<svg xmlns="http://www.w3.org/2000/svg" width="18.659" height="18.129" viewBox="0 0 18.659 18.129">
  <path id="Icon_metro-cross" data-name="Icon metro-cross" d="M21.059,16.492h0l-5.66-5.5,5.66-5.5h0a.561.561,0,0,0,.133-.2.555.555,0,0,0-.133-.6l-2.674-2.6a.6.6,0,0,0-.616-.13.582.582,0,0,0-.208.129h0l-5.66,5.5-5.66-5.5h0a.582.582,0,0,0-.208-.129.6.6,0,0,0-.616.13l-2.674,2.6a.555.555,0,0,0-.133.6.562.562,0,0,0,.133.2h0l5.66,5.5-5.66,5.5h0a.562.562,0,0,0-.133.2.555.555,0,0,0,.133.6l2.674,2.6a.6.6,0,0,0,.616.13.582.582,0,0,0,.208-.129h0l5.66-5.5,5.66,5.5h0a.582.582,0,0,0,.208.129.6.6,0,0,0,.616-.13l2.674-2.6a.555.555,0,0,0,.133-.6.561.561,0,0,0-.133-.2Z" transform="translate(-2.571 -1.928)" fill="#fff"/>
</svg>
